<?xml version="1.0" encoding="UTF-8"?>
<svg id="Layer_1" data-name="Layer 1" xmlns="http://www.w3.org/2000/svg" viewBox="0 0 300.93 44.57">
  <defs>
    <style>
      .cls-1 {
        fill: #ffffff;
      }

      .cls-2 {
        fill: #3a8843;
      }
    </style>
  </defs>
  <g>
    <path class="cls-1" d="m1.84,15.78h.1c.2-.63.53-1.32.99-2.08.46-.76,1.08-1.46,1.84-2.11.76-.65,1.68-1.18,2.76-1.61,1.08-.43,2.31-.65,3.71-.65,1.96,0,3.66.36,5.1,1.09,1.44.73,2.64,1.71,3.58,2.93.95,1.22,1.65,2.65,2.12,4.27.46,1.62.7,3.33.7,5.11,0,1.95-.23,3.74-.7,5.36-.46,1.62-1.17,3.02-2.12,4.19s-2.14,2.09-3.58,2.75c-1.44.66-3.14.99-5.1.99-2.12,0-4.01-.46-5.67-1.39-1.66-.93-2.87-2.43-3.63-4.52h-.1v14.44H0V9.93h1.84v5.86Zm9.41,18.61c1.66,0,3.09-.31,4.3-.94,1.21-.63,2.21-1.47,2.99-2.53.78-1.06,1.36-2.29,1.74-3.7.38-1.41.57-2.9.57-4.49,0-1.46-.18-2.89-.55-4.29-.37-1.41-.93-2.66-1.69-3.77s-1.75-2-2.96-2.68c-1.21-.68-2.68-1.02-4.4-1.02s-3.14.33-4.33.99-2.17,1.54-2.91,2.63c-.75,1.09-1.29,2.34-1.62,3.75s-.5,2.87-.5,4.39.15,2.99.45,4.39c.3,1.41.8,2.65,1.52,3.72.71,1.08,1.67,1.94,2.89,2.58,1.21.64,2.71.97,4.5.97Z"/>
    <path class="cls-1" d="m29.53,15.58h.15c.23-.83.65-1.6,1.27-2.33.61-.73,1.36-1.36,2.23-1.89.88-.53,1.85-.93,2.93-1.22,1.07-.28,2.19-.41,3.35-.37v1.89c-.99-.13-2.13-.03-3.4.3-1.27.33-2.49,1.06-3.65,2.18-.46.5-.87.98-1.22,1.44-.35.46-.64.98-.87,1.54s-.41,1.19-.55,1.89c-.13.7-.22,1.52-.25,2.48v13.95h-1.89V9.93h1.89v5.66Z"/>
    <path class="cls-1" d="m40.15,22.68c0-1.82.26-3.53.77-5.14.51-1.6,1.27-3.02,2.26-4.24.99-1.22,2.22-2.19,3.67-2.9,1.46-.71,3.13-1.07,5.01-1.07s3.56.36,5.01,1.07c1.46.71,2.68,1.68,3.67,2.9.99,1.22,1.75,2.64,2.26,4.24.51,1.6.77,3.32.77,5.14s-.26,3.54-.77,5.16c-.51,1.62-1.27,3.04-2.26,4.24-.99,1.21-2.22,2.17-3.67,2.88-1.46.71-3.13,1.07-5.01,1.07s-3.56-.36-5.01-1.07c-1.46-.71-2.68-1.67-3.67-2.88-.99-1.21-1.75-2.62-2.26-4.24-.51-1.62-.77-3.34-.77-5.16Zm1.89,0c0,1.52.21,2.99.65,4.39.43,1.41,1.06,2.66,1.89,3.75.83,1.09,1.85,1.96,3.08,2.61,1.22.64,2.63.97,4.22.97s2.99-.32,4.22-.97c1.22-.65,2.25-1.51,3.08-2.61.83-1.09,1.46-2.34,1.89-3.75.43-1.41.65-2.87.65-4.39s-.22-2.99-.65-4.39c-.43-1.41-1.06-2.66-1.89-3.75-.83-1.09-1.85-1.96-3.08-2.61-1.22-.64-2.63-.97-4.22-.97s-3,.32-4.22.97c-1.22.65-2.25,1.51-3.08,2.61-.83,1.09-1.46,2.34-1.89,3.75-.43,1.41-.65,2.87-.65,4.39Z"/>
    <path class="cls-1" d="m74.85,33.25h.1l6.95-23.33h2.53l7,23.33h.1l7.15-23.33h2.08l-8.19,25.51h-2.33l-7-23.13h-.1l-7.05,23.13h-2.38l-8.09-25.51h2.03l7.2,23.33Z"/>
    <path class="cls-1" d="m104.83,26.95c.07,1.19.33,2.24.79,3.15.46.91,1.07,1.69,1.81,2.33.74.65,1.61,1.13,2.61,1.46.99.33,2.07.5,3.23.5.83,0,1.71-.08,2.66-.22.94-.15,1.82-.42,2.63-.82.81-.4,1.48-.95,2.01-1.66.53-.71.79-1.61.79-2.71,0-1.42-.43-2.5-1.29-3.23-.86-.73-1.94-1.29-3.25-1.69-1.31-.4-2.71-.72-4.22-.97-1.51-.25-2.91-.62-4.22-1.12-1.31-.5-2.39-1.2-3.25-2.11-.86-.91-1.29-2.24-1.29-4,0-1.26.28-2.31.84-3.15.56-.84,1.28-1.51,2.16-2.01.88-.5,1.86-.85,2.95-1.07,1.09-.21,2.18-.32,3.28-.32,1.32,0,2.56.15,3.72.45,1.16.3,2.16.78,3,1.44.84.66,1.5,1.51,1.99,2.53.48,1.03.72,2.27.72,3.72h-1.89c0-1.16-.19-2.15-.57-2.98-.38-.83-.91-1.5-1.59-2.01-.68-.51-1.48-.89-2.41-1.14-.93-.25-1.92-.37-2.98-.37-.86,0-1.73.08-2.61.25-.88.17-1.66.45-2.36.84-.69.4-1.27.91-1.71,1.54-.45.63-.67,1.39-.67,2.28,0,1.03.25,1.85.74,2.48.5.63,1.15,1.13,1.96,1.51.81.38,1.72.69,2.73.92s2.03.46,3.05.69c1.26.23,2.44.5,3.55.82,1.11.31,2.07.74,2.88,1.29.81.55,1.45,1.25,1.91,2.11.46.86.69,1.95.69,3.28,0,1.39-.31,2.53-.94,3.42-.63.89-1.42,1.61-2.38,2.16-.96.55-2.03.93-3.2,1.14-1.17.21-2.32.32-3.45.32-1.46,0-2.8-.19-4.05-.57-1.24-.38-2.33-.96-3.25-1.74-.93-.78-1.65-1.73-2.18-2.85-.53-1.12-.81-2.43-.84-3.92h1.89Z"/>
    <path class="cls-1" d="m129,22.93v.3c0,1.49.2,2.91.6,4.27.4,1.36.99,2.55,1.77,3.57.78,1.03,1.76,1.84,2.94,2.43,1.18.6,2.55.89,4.11.89,2.55,0,4.58-.67,6.07-2.01,1.49-1.34,2.52-3.2,3.09-5.58h1.89c-.56,2.98-1.78,5.26-3.65,6.85-1.87,1.59-4.34,2.38-7.42,2.38-1.89,0-3.53-.34-4.94-1.02-1.41-.68-2.58-1.6-3.52-2.78s-1.65-2.56-2.11-4.17c-.46-1.6-.69-3.33-.69-5.19s.24-3.5.72-5.14c.48-1.64,1.2-3.08,2.16-4.32.96-1.24,2.16-2.23,3.6-2.98,1.44-.75,3.13-1.12,5.09-1.12,1.79,0,3.37.33,4.74.99,1.37.66,2.52,1.56,3.45,2.71.93,1.14,1.63,2.46,2.11,3.97.48,1.51.72,3.12.72,4.84,0,.17,0,.36-.02.57-.02.22-.02.39-.02.52h-20.65Zm18.76-1.64c-.07-1.39-.3-2.71-.7-3.95-.4-1.24-.99-2.33-1.77-3.28-.78-.94-1.73-1.7-2.84-2.26-1.11-.56-2.38-.84-3.81-.84-1.53,0-2.87.29-4.03.87-1.16.58-2.14,1.34-2.94,2.28-.8.94-1.41,2.04-1.84,3.3s-.7,2.55-.8,3.87h18.71Z"/>
  </g>
  <g>
    <path class="cls-2" d="m166.12,15.78h.1c.2-.63.53-1.32.99-2.08.46-.76,1.08-1.46,1.84-2.11.76-.65,1.68-1.18,2.76-1.61,1.08-.43,2.31-.65,3.71-.65,1.96,0,3.66.36,5.1,1.09,1.44.73,2.64,1.71,3.58,2.93.95,1.22,1.65,2.65,2.12,4.27.46,1.62.7,3.33.7,5.11,0,1.95-.23,3.74-.7,5.36-.46,1.62-1.17,3.02-2.12,4.19s-2.14,2.09-3.58,2.75c-1.44.66-3.14.99-5.1.99-2.12,0-4.01-.46-5.67-1.39-1.66-.93-2.87-2.43-3.63-4.52h-.1v14.44h-1.84V9.93h1.84v5.86Zm9.41,18.61c1.66,0,3.09-.31,4.3-.94,1.21-.63,2.21-1.47,2.99-2.53.78-1.06,1.36-2.29,1.74-3.7.38-1.41.57-2.9.57-4.49,0-1.46-.18-2.89-.55-4.29-.37-1.41-.93-2.66-1.69-3.77s-1.75-2-2.96-2.68c-1.21-.68-2.68-1.02-4.4-1.02s-3.14.33-4.33.99-2.17,1.54-2.91,2.63c-.75,1.09-1.29,2.34-1.62,3.75s-.5,2.87-.5,4.39.15,2.99.45,4.39c.3,1.41.8,2.65,1.52,3.72.71,1.08,1.67,1.94,2.89,2.58,1.21.64,2.71.97,4.5.97Z"/>
    <path class="cls-2" d="m193.82,0v15.39h.1c.33-.96.8-1.81,1.41-2.56.61-.74,1.32-1.38,2.13-1.91.81-.53,1.7-.93,2.66-1.19.96-.26,1.94-.4,2.93-.4,1.49,0,2.75.18,3.8.55,1.04.36,1.89.84,2.56,1.44.66.6,1.18,1.27,1.56,2.01.38.74.65,1.5.82,2.26.17.76.26,1.5.3,2.21.03.71.05,1.33.05,1.86v15.78h-1.89v-16.13c0-.63-.05-1.42-.15-2.38-.1-.96-.39-1.88-.87-2.75-.48-.88-1.21-1.63-2.18-2.26-.98-.63-2.33-.94-4.05-.94-1.46,0-2.75.27-3.87.79-1.13.53-2.08,1.27-2.88,2.21-.79.94-1.4,2.07-1.81,3.38-.41,1.31-.62,2.74-.62,4.29v13.8h-1.89V0h1.89Z"/>
    <path class="cls-2" d="m218.64,5.11V0h1.89v5.11h-1.89Zm0,30.33V9.93h1.89v25.51h-1.89Z"/>
    <path class="cls-2" d="m229.36,0v35.44h-1.89V0h1.89Z"/>
    <path class="cls-2" d="m238.19,0v35.44h-1.89V0h1.89Z"/>
    <path class="cls-2" d="m245.14,5.11V0h1.89v5.11h-1.89Zm0,30.33V9.93h1.89v25.51h-1.89Z"/>
    <path class="cls-2" d="m255.81,15.78h.1c.2-.63.53-1.32.99-2.08.46-.76,1.08-1.46,1.84-2.11.76-.65,1.68-1.18,2.76-1.61,1.08-.43,2.31-.65,3.71-.65,1.96,0,3.66.36,5.1,1.09,1.44.73,2.64,1.71,3.58,2.93.95,1.22,1.65,2.65,2.11,4.27.46,1.62.7,3.33.7,5.11,0,1.95-.23,3.74-.7,5.36-.46,1.62-1.17,3.02-2.11,4.19s-2.14,2.09-3.58,2.75c-1.44.66-3.14.99-5.1.99-2.12,0-4.01-.46-5.67-1.39-1.66-.93-2.87-2.43-3.63-4.52h-.1v14.44h-1.84V9.93h1.84v5.86Zm9.41,18.61c1.66,0,3.09-.31,4.3-.94,1.21-.63,2.21-1.47,2.99-2.53.78-1.06,1.36-2.29,1.74-3.7.38-1.41.57-2.9.57-4.49,0-1.46-.18-2.89-.55-4.29-.37-1.41-.93-2.66-1.69-3.77s-1.75-2-2.96-2.68c-1.21-.68-2.68-1.02-4.4-1.02s-3.14.33-4.33.99-2.17,1.54-2.91,2.63c-.75,1.09-1.29,2.34-1.62,3.75s-.5,2.87-.5,4.39.15,2.99.45,4.39c.3,1.41.8,2.65,1.52,3.72.71,1.08,1.67,1.94,2.89,2.58,1.21.64,2.71.97,4.5.97Z"/>
    <path class="cls-2" d="m282.51,26.95c.07,1.19.33,2.24.79,3.15.46.91,1.07,1.69,1.81,2.33.74.65,1.61,1.13,2.61,1.46.99.33,2.07.5,3.23.5.83,0,1.71-.08,2.66-.22.94-.15,1.82-.42,2.63-.82.81-.4,1.48-.95,2.01-1.66.53-.71.79-1.61.79-2.71,0-1.42-.43-2.5-1.29-3.23-.86-.73-1.94-1.29-3.25-1.69-1.31-.4-2.71-.72-4.22-.97s-2.91-.62-4.22-1.12c-1.31-.5-2.39-1.2-3.25-2.11-.86-.91-1.29-2.24-1.29-4,0-1.26.28-2.31.84-3.15.56-.84,1.28-1.51,2.16-2.01.88-.5,1.86-.85,2.95-1.07,1.09-.21,2.18-.32,3.28-.32,1.32,0,2.56.15,3.72.45,1.16.3,2.16.78,3,1.44.84.66,1.5,1.51,1.99,2.53.48,1.03.72,2.27.72,3.72h-1.89c0-1.16-.19-2.15-.57-2.98-.38-.83-.91-1.5-1.59-2.01-.68-.51-1.48-.89-2.41-1.14-.93-.25-1.92-.37-2.98-.37-.86,0-1.73.08-2.61.25-.88.17-1.66.45-2.36.84-.7.4-1.27.91-1.71,1.54-.45.63-.67,1.39-.67,2.28,0,1.03.25,1.85.75,2.48.5.63,1.15,1.13,1.96,1.51.81.38,1.72.69,2.73.92,1.01.23,2.03.46,3.05.69,1.26.23,2.44.5,3.55.82s2.07.74,2.88,1.29c.81.55,1.45,1.25,1.91,2.11.46.86.69,1.95.69,3.28,0,1.39-.31,2.53-.94,3.42-.63.89-1.42,1.61-2.38,2.16-.96.55-2.03.93-3.2,1.14-1.17.21-2.33.32-3.45.32-1.46,0-2.8-.19-4.05-.57-1.24-.38-2.33-.96-3.25-1.74-.93-.78-1.65-1.73-2.18-2.85-.53-1.12-.81-2.43-.84-3.92h1.89Z"/>
  </g>
</svg>